<?xml version="1.0" standalone="no"?>
<!DOCTYPE svg PUBLIC "-//W3C//DTD SVG 20010904//EN"
 "http://www.w3.org/TR/2001/REC-SVG-20010904/DTD/svg10.dtd">
<svg version="1.0" xmlns="http://www.w3.org/2000/svg"
 width="50.000000pt" height="50.000000pt" viewBox="0 0 50.000000 50.000000"
 preserveAspectRatio="xMidYMid meet">

<g transform="translate(0.000000,50.000000) scale(0.100000,-0.100000)"
fill="#000000" stroke="none">
<path d="M170 470 c0 -5 -18 -10 -39 -10 -22 0 -46 -3 -55 -6 -20 -8 -21 -42
-2 -63 7 -9 18 -66 25 -136 7 -66 15 -122 18 -125 5 -5 3 26 -13 195 l-7 65
169 2 169 3 3 24 c5 30 -12 41 -65 41 -24 0 -43 5 -43 10 0 6 -33 10 -80 10
-47 0 -80 -4 -80 -10z"/>
<path d="M397 325 c-3 -27 -12 -98 -18 -157 l-12 -108 -96 0 c-85 0 -98 2
-109 20 -28 45 -97 7 -72 -40 13 -24 52 -26 70 -5 18 21 130 21 130 0 0 -25
52 -18 72 9 18 24 54 276 46 314 -2 9 -7 -5 -11 -33z m-57 -285 c0 -5 -9 -10
-21 -10 -11 0 -17 5 -14 10 3 6 13 10 21 10 8 0 14 -4 14 -10z"/>
<path d="M143 344 c-8 -21 14 -225 26 -237 5 -5 15 -6 21 -2 12 8 10 68 -6
197 -7 48 -30 71 -41 42z"/>
<path d="M235 348 c-3 -8 -4 -66 -3 -129 2 -93 6 -114 18 -114 13 0 15 20 15
124 0 91 -3 125 -12 128 -7 3 -15 -2 -18 -9z"/>
<path d="M333 352 c-18 -11 -40 -229 -25 -244 22 -22 32 6 44 120 12 111 7
140 -19 124z"/>
</g>
</svg>
